ffmpeg started on 2025-06-06 at 15:43:52
Report written to "D:\Convert\FFMetrics\reports\ssim_report-6.txt"
Log level: 32
Command line:
ffmpeg -hide_banner -nostdin -i "G:\\\xc0\xed\xe8\xec\xe5\\\xce\xed\xe3\xee\xe8\xed\xe3\xe8\\!_36_\xce\xf1\xe5\xed\xfc_2024\\DreamCast\\\xcf\xe5\xf0\xe5\xf0\xee\xe6\xe4\xe5\xed\xe8\xe5 \xe2 \xe0\xf0\xe8\xf1\xf2\xee\xea\xf0\xe0\xf2\xe0 \xf1\xee \xf1\xef\xee\xf1\xee\xe1\xed\xee\xf1\xf2\xfc\xfe \xe0\xed\xe0\xeb\xe8\xe7\xe0\\\xd2\xc2-1\\[DC] Tensei Kizoku - Kantei Skill de Nariagaru - 03_Telegram_HEVC.mkv" -i "G:\\\xc0\xed\xe8\xec\xe5\\\xce\xed\xe3\xee\xe8\xed\xe3\xe8\\!_36_\xce\xf1\xe5\xed\xfc_2024\\DreamCast\\\xcf\xe5\xf0\xe5\xf0\xee\xe6\xe4\xe5\xed\xe8\xe5 \xe2 \xe0\xf0\xe8\xf1\xf2\xee\xea\xf0\xe0\xf2\xe0 \xf1\xee \xf1\xef\xee\xf1\xee\xe1\xed\xee\xf1\xf2\xfc\xfe \xe0\xed\xe0\xeb\xe8\xe7\xe0\\\xd2\xc2-1\\[DC] Tensei Kizoku - Kantei Skill de Nariagaru - 03_Telegram.mp4" -lavfi "[0:v]settb=AVTB,setpts=PTS-STARTPTS,format=pix_fmts=yuv420p10,fps=24000/1001,scale=1920:1080:flags=bicubic[main];[1:v]settb=AVTB,setpts=PTS-STARTPTS,format=pix_fmts=yuv420p,fps=24000/1001,scale=1920:1080:flags=bicubic[ref];[main][ref]ssim=eof_action=endall:stats_file='D\\:/Convert/FFMetrics/logs/ssim_logfile-6.txt'" -f null -
Input #0, matroska,webm, from 'G:\Аниме\Онгоинги\!_36_Осень_2024\DreamCast\Перерождение в аристократа со способностью анализа\ТВ-1\[DC] Tensei Kizoku - Kantei Skill de Nariagaru - 03_Telegram_HEVC.mkv':
  Metadata:
    COMPATIBLE_BRANDS: isomiso2avc1mp41
    MAJOR_BRAND     : isom
    MINOR_VERSION   : 512
    ENCODER         : Lavf61.7.100
  Duration: 00:23:46.90, start: -0.021000, bitrate: 1199 kb/s
  Stream #0:0: Video: hevc (Main 10), yuv420p10le(tv, bt709, progressive), 1920x1080 [SAR 1:1 DAR 16:9], 23.98 fps, 23.98 tbr, 1k tbn (default)
      Metadata:
        HANDLER_NAME    : VideoHandler
        VENDOR_ID       : [0][0][0][0]
        ENCODER         : Lavc61.19.100 libx265
        BPS             : 1001228
        DURATION        : 00:23:46.549708333
        NUMBER_OF_FRAMES: 34203
        NUMBER_OF_BYTES : 178537729
        _STATISTICS_WRITING_APP: mkvpropedit v66.0.0 ('Josie') 64-bit
        _STATISTICS_WRITING_DATE_UTC: 2025-06-02 07:07:22
        _STATISTICS_TAGS: BPS DURATION NUMBER_OF_FRAMES NUMBER_OF_BYTES
  Stream #0:1: Audio: aac (LC), 48000 Hz, stereo, fltp (default)
      Metadata:
        HANDLER_NAME    : SoundHandler
        VENDOR_ID       : [0][0][0][0]
        ENCODER         : Lavc61.19.100 aac
        BPS             : 193975
        DURATION        : 00:23:46.901000000
        NUMBER_OF_FRAMES: 66887
        NUMBER_OF_BYTES : 34598012
        _STATISTICS_WRITING_APP: mkvpropedit v66.0.0 ('Josie') 64-bit
        _STATISTICS_WRITING_DATE_UTC: 2025-06-02 07:07:22
        _STATISTICS_TAGS: BPS DURATION NUMBER_OF_FRAMES NUMBER_OF_BYTES
Input #1, mov,mp4,m4a,3gp,3g2,mj2, from 'G:\Аниме\Онгоинги\!_36_Осень_2024\DreamCast\Перерождение в аристократа со способностью анализа\ТВ-1\[DC] Tensei Kizoku - Kantei Skill de Nariagaru - 03_Telegram.mp4':
  Metadata:
    major_brand     : isom
    minor_version   : 512
    compatible_brands: isomiso2avc1mp41
    encoder         : Lavf60.16.100
  Duration: 00:23:46.85, start: 0.000000, bitrate: 3698 kb/s
  Stream #1:0[0x1](und): Video: h264 (High) (avc1 / 0x31637661), yuv420p(tv, bt709, progressive), 1920x1080 [SAR 1:1 DAR 16:9], 3551 kb/s, 23.98 fps, 23.98 tbr, 24k tbn (default)
      Metadata:
        handler_name    : VideoHandler
        vendor_id       : [0][0][0][0]
        encoder         : Lavc60.31.102 h264_qsv
  Stream #1:1[0x2](und): Audio: aac (HE-AACv2) (mp4a / 0x6134706D), 48000 Hz, stereo, fltp, 144 kb/s (default)
      Metadata:
        handler_name    : SoundHandler
        vendor_id       : [0][0][0][0]
Stream mapping:
  Stream #0:0 (hevc) -> settb:default
  Stream #1:0 (h264) -> settb:default
  ssim:default -> Stream #0:0 (wrapped_avframe)
  Stream #0:1 -> #0:1 (aac (native) -> pcm_s16le (native))
Output #0, null, to 'pipe:':
  Metadata:
    COMPATIBLE_BRANDS: isomiso2avc1mp41
    MAJOR_BRAND     : isom
    MINOR_VERSION   : 512
    encoder         : Lavf61.7.100
  Stream #0:0: Video: wrapped_avframe, yuv420p10le(tv, bt709, progressive), 1920x1080 [SAR 1:1 DAR 16:9], q=2-31, 200 kb/s, 23.98 fps, 23.98 tbn
      Metadata:
        encoder         : Lavc61.19.100 wrapped_avframe
  Stream #0:1: Audio: pcm_s16le, 48000 Hz, stereo, s16, 1536 kb/s (default)
      Metadata:
        HANDLER_NAME    : SoundHandler
        VENDOR_ID       : [0][0][0][0]
        _STATISTICS_TAGS: BPS DURATION NUMBER_OF_FRAMES NUMBER_OF_BYTES
        BPS             : 193975
        DURATION        : 00:23:46.901000000
        NUMBER_OF_FRAMES: 66887
        NUMBER_OF_BYTES : 34598012
        _STATISTICS_WRITING_APP: mkvpropedit v66.0.0 ('Josie') 64-bit
        _STATISTICS_WRITING_DATE_UTC: 2025-06-02 07:07:22
        encoder         : Lavc61.19.100 pcm_s16le
frame=  160 fps=0.0 q=-0.0 size=N/A time=00:00:06.67 bitrate=N/A speed=12.7x    frame=  274 fps=265 q=-0.0 size=N/A time=00:00:11.42 bitrate=N/A speed=11.1x    frame=  398 fps=256 q=-0.0 size=N/A time=00:00:16.59 bitrate=N/A speed=10.7x    frame=  511 fps=248 q=-0.0 size=N/A time=00:00:21.31 bitrate=N/A speed=10.3x    frame=  634 fps=245 q=-0.0 size=N/A time=00:00:26.44 bitrate=N/A speed=10.2x    frame=  840 fps=271 q=-0.0 size=N/A time=00:00:35.03 bitrate=N/A speed=11.3x    frame= 1016 fps=281 q=-0.0 size=N/A time=00:00:42.37 bitrate=N/A speed=11.7x    frame= 1194 fps=289 q=-0.0 size=N/A time=00:00:49.79 bitrate=N/A speed=12.1x    frame= 1383 fps=297 q=-0.0 size=N/A time=00:00:57.68 bitrate=N/A speed=12.4x    frame= 1567 fps=304 q=-0.0 size=N/A time=00:01:05.35 bitrate=N/A speed=12.7x    frame= 1719 fps=303 q=-0.0 size=N/A time=00:01:11.69 bitrate=N/A speed=12.6x    frame= 1894 fps=306 q=-0.0 size=N/A time=00:01:18.99 bitrate=N/A speed=12.8x    frame= 2112 fps=315 q=-0.0 size=N/A time=00:01:28.08 bitrate=N/A speed=13.1x    frame= 2286 fps=316 q=-0.0 size=N/A time=00:01:35.34 bitrate=N/A speed=13.2x    frame= 2470 fps=319 q=-0.0 size=N/A time=00:01:43.01 bitrate=N/A speed=13.3x    frame= 2681 fps=325 q=-0.0 size=N/A time=00:01:51.82 bitrate=N/A speed=13.5x    frame= 2883 fps=329 q=-0.0 size=N/A time=00:02:00.24 bitrate=N/A speed=13.7x    frame= 3114 fps=335 q=-0.0 size=N/A time=00:02:09.87 bitrate=N/A speed=  14x    frame= 3335 fps=340 q=-0.0 size=N/A time=00:02:19.09 bitrate=N/A speed=14.2x    frame= 3578 fps=347 q=-0.0 size=N/A time=00:02:29.23 bitrate=N/A speed=14.5x    frame= 3811 fps=352 q=-0.0 size=N/A time=00:02:38.95 bitrate=N/A speed=14.7x    frame= 4072 fps=359 q=-0.0 size=N/A time=00:02:49.83 bitrate=N/A speed=  15x    frame= 4326 fps=365 q=-0.0 size=N/A time=00:03:00.43 bitrate=N/A speed=15.2x    frame= 4525 fps=366 q=-0.0 size=N/A time=00:03:08.73 bitrate=N/A speed=15.3x    frame= 4768 fps=370 q=-0.0 size=N/A time=00:03:18.86 bitrate=N/A speed=15.4x    frame= 5023 fps=374 q=-0.0 size=N/A time=00:03:29.50 bitrate=N/A speed=15.6x    frame= 5277 fps=378 q=-0.0 size=N/A time=00:03:40.09 bitrate=N/A speed=15.8x    frame= 5516 fps=381 q=-0.0 size=N/A time=00:03:50.06 bitrate=N/A speed=15.9x    frame= 5741 fps=384 q=-0.0 size=N/A time=00:03:59.44 bitrate=N/A speed=  16x    frame= 5999 fps=387 q=-0.0 size=N/A time=00:04:10.20 bitrate=N/A speed=16.2x    frame= 6252 fps=390 q=-0.0 size=N/A time=00:04:20.76 bitrate=N/A speed=16.3x    frame= 6462 fps=391 q=-0.0 size=N/A time=00:04:29.51 bitrate=N/A speed=16.3x    frame= 6721 fps=394 q=-0.0 size=N/A time=00:04:40.32 bitrate=N/A speed=16.4x    frame= 6989 fps=398 q=-0.0 size=N/A time=00:04:51.49 bitrate=N/A speed=16.6x    frame= 7243 fps=401 q=-0.0 size=N/A time=00:05:02.09 bitrate=N/A speed=16.7x    frame= 7471 fps=402 q=-0.0 size=N/A time=00:05:11.60 bitrate=N/A speed=16.8x    frame= 7740 fps=405 q=-0.0 size=N/A time=00:05:22.82 bitrate=N/A speed=16.9x    frame= 8019 fps=409 q=-0.0 size=N/A time=00:05:34.45 bitrate=N/A speed=17.1x    frame= 8310 fps=413 q=-0.0 size=N/A time=00:05:46.59 bitrate=N/A speed=17.2x    frame= 8568 fps=415 q=-0.0 size=N/A time=00:05:57.35 bitrate=N/A speed=17.3x    frame= 8840 fps=418 q=-0.0 size=N/A time=00:06:08.70 bitrate=N/A speed=17.4x    frame= 9056 fps=418 q=-0.0 size=N/A time=00:06:17.71 bitrate=N/A speed=17.4x    frame= 9310 fps=420 q=-0.0 size=N/A time=00:06:28.30 bitrate=N/A speed=17.5x    frame= 9577 fps=422 q=-0.0 size=N/A time=00:06:39.44 bitrate=N/A speed=17.6x    frame= 9829 fps=423 q=-0.0 size=N/A time=00:06:49.95 bitrate=N/A speed=17.7x    frame=10093 fps=425 q=-0.0 size=N/A time=00:07:00.96 bitrate=N/A speed=17.7x    frame=10368 fps=427 q=-0.0 size=N/A time=00:07:12.43 bitrate=N/A speed=17.8x    frame=10611 fps=428 q=-0.0 size=N/A time=00:07:22.56 bitrate=N/A speed=17.9x    frame=10879 fps=430 q=-0.0 size=N/A time=00:07:33.74 bitrate=N/A speed=17.9x    frame=11123 fps=431 q=-0.0 size=N/A time=00:07:43.92 bitrate=N/A speed=  18x    frame=11363 fps=432 q=-0.0 size=N/A time=00:07:53.93 bitrate=N/A speed=  18x    frame=11552 fps=431 q=-0.0 size=N/A time=00:08:01.81 bitrate=N/A speed=  18x    frame=11790 fps=431 q=-0.0 size=N/A time=00:08:11.74 bitrate=N/A speed=  18x    frame=12039 fps=432 q=-0.0 size=N/A time=00:08:22.12 bitrate=N/A speed=  18x    frame=12286 fps=433 q=-0.0 size=N/A time=00:08:32.42 bitrate=N/A speed=18.1x    frame=12547 fps=434 q=-0.0 size=N/A time=00:08:43.31 bitrate=N/A speed=18.1x    frame=12801 fps=435 q=-0.0 size=N/A time=00:08:53.90 bitrate=N/A speed=18.1x    frame=13063 fps=436 q=-0.0 size=N/A time=00:09:04.83 bitrate=N/A speed=18.2x    frame=13282 fps=436 q=-0.0 size=N/A time=00:09:13.97 bitrate=N/A speed=18.2x    frame=13508 fps=436 q=-0.0 size=N/A time=00:09:23.39 bitrate=N/A speed=18.2x    frame=13755 fps=437 q=-0.0 size=N/A time=00:09:33.69 bitrate=N/A speed=18.2x    frame=13988 fps=437 q=-0.0 size=N/A time=00:09:43.41 bitrate=N/A speed=18.2x    frame=14255 fps=439 q=-0.0 size=N/A time=00:09:54.55 bitrate=N/A speed=18.3x    frame=14490 fps=439 q=-0.0 size=N/A time=00:10:04.35 bitrate=N/A speed=18.3x    frame=14762 fps=440 q=-0.0 size=N/A time=00:10:15.69 bitrate=N/A speed=18.4x    frame=15025 fps=441 q=-0.0 size=N/A time=00:10:26.66 bitrate=N/A speed=18.4x    frame=15293 fps=442 q=-0.0 size=N/A time=00:10:37.84 bitrate=N/A speed=18.5x    frame=15539 fps=443 q=-0.0 size=N/A time=00:10:48.10 bitrate=N/A speed=18.5x    frame=15759 fps=443 q=-0.0 size=N/A time=00:10:57.28 bitrate=N/A speed=18.5x    frame=16002 fps=443 q=-0.0 size=N/A time=00:11:07.41 bitrate=N/A speed=18.5x    frame=16273 fps=444 q=-0.0 size=N/A time=00:11:18.71 bitrate=N/A speed=18.5x    frame=16536 fps=445 q=-0.0 size=N/A time=00:11:29.68 bitrate=N/A speed=18.6x    frame=16817 fps=447 q=-0.0 size=N/A time=00:11:41.40 bitrate=N/A speed=18.6x    frame=17094 fps=448 q=-0.0 size=N/A time=00:11:52.96 bitrate=N/A speed=18.7x    frame=17352 fps=448 q=-0.0 size=N/A time=00:12:03.72 bitrate=N/A speed=18.7x    frame=17620 fps=449 q=-0.0 size=N/A time=00:12:14.90 bitrate=N/A speed=18.7x    frame=17896 fps=451 q=-0.0 size=N/A time=00:12:26.41 bitrate=N/A speed=18.8x    frame=18149 fps=451 q=-0.0 size=N/A time=00:12:36.96 bitrate=N/A speed=18.8x    frame=18405 fps=452 q=-0.0 size=N/A time=00:12:47.64 bitrate=N/A speed=18.8x    frame=18669 fps=452 q=-0.0 size=N/A time=00:12:58.65 bitrate=N/A speed=18.9x    frame=18895 fps=452 q=-0.0 size=N/A time=00:13:08.07 bitrate=N/A speed=18.9x    frame=19113 fps=452 q=-0.0 size=N/A time=00:13:17.17 bitrate=N/A speed=18.8x    frame=19351 fps=452 q=-0.0 size=N/A time=00:13:27.09 bitrate=N/A speed=18.8x    frame=19548 fps=451 q=-0.0 size=N/A time=00:13:35.31 bitrate=N/A speed=18.8x    frame=19766 fps=451 q=-0.0 size=N/A time=00:13:44.40 bitrate=N/A speed=18.8x    frame=20015 fps=451 q=-0.0 size=N/A time=00:13:54.79 bitrate=N/A speed=18.8x    frame=20265 fps=451 q=-0.0 size=N/A time=00:14:05.21 bitrate=N/A speed=18.8x    frame=20505 fps=452 q=-0.0 size=N/A time=00:14:15.22 bitrate=N/A speed=18.8x    frame=20767 fps=452 q=-0.0 size=N/A time=00:14:26.15 bitrate=N/A speed=18.9x    frame=21048 fps=453 q=-0.0 size=N/A time=00:14:37.87 bitrate=N/A speed=18.9x    frame=21296 fps=454 q=-0.0 size=N/A time=00:14:48.22 bitrate=N/A speed=18.9x    frame=21578 fps=455 q=-0.0 size=N/A time=00:14:59.98 bitrate=N/A speed=  19x    frame=21763 fps=454 q=-0.0 size=N/A time=00:15:07.69 bitrate=N/A speed=18.9x    frame=22005 fps=454 q=-0.0 size=N/A time=00:15:17.79 bitrate=N/A speed=18.9x    frame=22264 fps=454 q=-0.0 size=N/A time=00:15:28.59 bitrate=N/A speed=  19x    frame=22507 fps=454 q=-0.0 size=N/A time=00:15:38.72 bitrate=N/A speed=  19x    frame=22726 fps=454 q=-0.0 size=N/A time=00:15:47.86 bitrate=N/A speed=18.9x    frame=23012 fps=455 q=-0.0 size=N/A time=00:15:59.79 bitrate=N/A speed=  19x    frame=23277 fps=456 q=-0.0 size=N/A time=00:16:10.84 bitrate=N/A speed=  19x    frame=23548 fps=456 q=-0.0 size=N/A time=00:16:22.14 bitrate=N/A speed=  19x    frame=23806 fps=457 q=-0.0 size=N/A time=00:16:32.90 bitrate=N/A speed=19.1x    frame=24080 fps=458 q=-0.0 size=N/A time=00:16:44.33 bitrate=N/A speed=19.1x    frame=24324 fps=458 q=-0.0 size=N/A time=00:16:54.51 bitrate=N/A speed=19.1x    frame=24592 fps=458 q=-0.0 size=N/A time=00:17:05.69 bitrate=N/A speed=19.1x    frame=24839 fps=458 q=-0.0 size=N/A time=00:17:15.99 bitrate=N/A speed=19.1x    frame=25082 fps=459 q=-0.0 size=N/A time=00:17:26.12 bitrate=N/A speed=19.1x    frame=25301 fps=458 q=-0.0 size=N/A time=00:17:35.26 bitrate=N/A speed=19.1x    frame=25507 fps=458 q=-0.0 size=N/A time=00:17:43.85 bitrate=N/A speed=19.1x    frame=25717 fps=457 q=-0.0 size=N/A time=00:17:52.61 bitrate=N/A speed=19.1x    frame=25930 fps=457 q=-0.0 size=N/A time=00:18:01.49 bitrate=N/A speed=19.1x    frame=26161 fps=457 q=-0.0 size=N/A time=00:18:11.13 bitrate=N/A speed=19.1x    frame=26403 fps=457 q=-0.0 size=N/A time=00:18:21.22 bitrate=N/A speed=19.1x    frame=26669 fps=457 q=-0.0 size=N/A time=00:18:32.31 bitrate=N/A speed=19.1x    frame=26956 fps=458 q=-0.0 size=N/A time=00:18:44.28 bitrate=N/A speed=19.1x    frame=27235 fps=459 q=-0.0 size=N/A time=00:18:55.92 bitrate=N/A speed=19.1x    frame=27483 fps=459 q=-0.0 size=N/A time=00:19:06.27 bitrate=N/A speed=19.2x    frame=27756 fps=460 q=-0.0 size=N/A time=00:19:17.65 bitrate=N/A speed=19.2x    frame=28006 fps=460 q=-0.0 size=N/A time=00:19:28.08 bitrate=N/A speed=19.2x    frame=28257 fps=460 q=-0.0 size=N/A time=00:19:38.55 bitrate=N/A speed=19.2x    frame=28535 fps=461 q=-0.0 size=N/A time=00:19:50.14 bitrate=N/A speed=19.2x    frame=28797 fps=461 q=-0.0 size=N/A time=00:20:01.07 bitrate=N/A speed=19.2x    frame=29040 fps=461 q=-0.0 size=N/A time=00:20:11.21 bitrate=N/A speed=19.2x    frame=29287 fps=462 q=-0.0 size=N/A time=00:20:21.51 bitrate=N/A speed=19.3x    frame=29552 fps=462 q=-0.0 size=N/A time=00:20:32.56 bitrate=N/A speed=19.3x    frame=29802 fps=462 q=-0.0 size=N/A time=00:20:42.99 bitrate=N/A speed=19.3x    frame=30042 fps=462 q=-0.0 size=N/A time=00:20:53.00 bitrate=N/A speed=19.3x    frame=30289 fps=462 q=-0.0 size=N/A time=00:21:03.30 bitrate=N/A speed=19.3x    frame=30530 fps=462 q=-0.0 size=N/A time=00:21:13.35 bitrate=N/A speed=19.3x    frame=30810 fps=463 q=-0.0 size=N/A time=00:21:25.03 bitrate=N/A speed=19.3x    frame=31042 fps=463 q=-0.0 size=N/A time=00:21:34.71 bitrate=N/A speed=19.3x    frame=31307 fps=463 q=-0.0 size=N/A time=00:21:45.76 bitrate=N/A speed=19.3x    frame=31540 fps=463 q=-0.0 size=N/A time=00:21:55.48 bitrate=N/A speed=19.3x    frame=31759 fps=463 q=-0.0 size=N/A time=00:22:04.61 bitrate=N/A speed=19.3x    frame=31924 fps=462 q=-0.0 size=N/A time=00:22:11.49 bitrate=N/A speed=19.3x    frame=32122 fps=461 q=-0.0 size=N/A time=00:22:19.75 bitrate=N/A speed=19.2x    frame=32322 fps=461 q=-0.0 size=N/A time=00:22:28.09 bitrate=N/A speed=19.2x    frame=32515 fps=460 q=-0.0 size=N/A time=00:22:36.14 bitrate=N/A speed=19.2x    frame=32706 fps=459 q=-0.0 size=N/A time=00:22:44.11 bitrate=N/A speed=19.2x    frame=32902 fps=459 q=-0.0 size=N/A time=00:22:52.28 bitrate=N/A speed=19.1x    frame=33107 fps=458 q=-0.0 size=N/A time=00:23:00.83 bitrate=N/A speed=19.1x    frame=33283 fps=457 q=-0.0 size=N/A time=00:23:08.17 bitrate=N/A speed=19.1x    frame=33503 fps=457 q=-0.0 size=N/A time=00:23:17.35 bitrate=N/A speed=19.1x    frame=33702 fps=457 q=-0.0 size=N/A time=00:23:25.65 bitrate=N/A speed=  19x    frame=33901 fps=456 q=-0.0 size=N/A time=00:23:33.95 bitrate=N/A speed=  19x    frame=34136 fps=456 q=-0.0 size=N/A time=00:23:43.75 bitrate=N/A speed=  19x    [Parsed_ssim_10 @ 0000013e35b29540] SSIM Y:0.993259 (21.712851) U:0.993271 (21.720310) V:0.993537 (21.895937) All:0.993307 (21.744085)
[out#0/null @ 0000013e356650c0] video:14697KiB audio:267548KiB subtitle:0KiB other streams:0KiB global headers:0KiB muxing overhead: unknown
frame=34203 fps=456 q=-0.0 Lsize=N/A time=00:23:46.55 bitrate=N/A speed=  19x    
